<svg xmlns="http://www.w3.org/2000/svg" viewBox="0 0 512 512" role="img" aria-label="ARWEN">
  <defs>
    <linearGradient id="bg" x1="84" y1="48" x2="428" y2="464" gradientUnits="userSpaceOnUse">
      <stop offset="0" stop-color="#ff3fa4"/>
      <stop offset="0.52" stop-color="#9b72f5"/>
      <stop offset="1" stop-color="#00ffe1"/>
    </linearGradient>
    <linearGradient id="shine" x1="142" y1="126" x2="366" y2="398" gradientUnits="userSpaceOnUse">
      <stop offset="0" stop-color="#fff7ff"/>
      <stop offset="1" stop-color="#c4a8ff"/>
    </linearGradient>
  </defs>
  <rect width="512" height="512" rx="112" fill="#07050f"/>
  <rect x="32" y="32" width="448" height="448" rx="96" fill="url(#bg)" opacity="0.2"/>
  <path d="M138 172c28-54 70-82 118-82s90 28 118 82l-56 188H194L138 172Z" fill="#120f22" stroke="url(#bg)" stroke-width="18" stroke-linejoin="round"/>
  <path d="M180 178l34-70 31 62M332 178l-34-70-31 62" fill="none" stroke="#ff3fa4" stroke-width="18" stroke-linecap="round" stroke-linejoin="round"/>
  <path d="M180 346l76-206 76 206" fill="none" stroke="url(#shine)" stroke-width="34" stroke-linecap="round" stroke-linejoin="round"/>
  <path d="M218 270h76" fill="none" stroke="#00ffe1" stroke-width="26" stroke-linecap="round"/>
  <circle cx="180" cy="190" r="10" fill="#00ffe1"/>
  <circle cx="332" cy="190" r="10" fill="#00ffe1"/>
</svg>
